<svg width="41" height="40" viewBox="0 0 41 40" fill="none" xmlns="http://www.w3.org/2000/svg">
<rect x="0.078125" width="40" height="40" rx="20" fill="#2F2F2F"/>
<path d="M20.0781 16.6055C21.8008 16.6055 23.2227 18.0273 23.2227 19.75C23.2227 21.5 21.8008 22.8945 20.0781 22.8945C18.3281 22.8945 16.9336 21.5 16.9336 19.75C16.9336 18.0273 18.3281 16.6055 20.0781 16.6055ZM20.0781 21.8008C21.1992 21.8008 22.1016 20.8984 22.1016 19.75C22.1016 18.6289 21.1992 17.7266 20.0781 17.7266C18.9297 17.7266 18.0273 18.6289 18.0273 19.75C18.0273 20.8984 18.957 21.8008 20.0781 21.8008ZM24.0703 16.4961C24.0703 16.9062 23.7422 17.2344 23.332 17.2344C22.9219 17.2344 22.5938 16.9062 22.5938 16.4961C22.5938 16.0859 22.9219 15.7578 23.332 15.7578C23.7422 15.7578 24.0703 16.0859 24.0703 16.4961ZM26.1484 17.2344C26.2031 18.2461 26.2031 21.2812 26.1484 22.293C26.0938 23.2773 25.875 24.125 25.1641 24.8633C24.4531 25.5742 23.5781 25.793 22.5938 25.8477C21.582 25.9023 18.5469 25.9023 17.5352 25.8477C16.5508 25.793 15.7031 25.5742 14.9648 24.8633C14.2539 24.125 14.0352 23.2773 13.9805 22.293C13.9258 21.2812 13.9258 18.2461 13.9805 17.2344C14.0352 16.25 14.2539 15.375 14.9648 14.6641C15.7031 13.9531 16.5508 13.7344 17.5352 13.6797C18.5469 13.625 21.582 13.625 22.5938 13.6797C23.5781 13.7344 24.4531 13.9531 25.1641 14.6641C25.875 15.375 26.0938 16.25 26.1484 17.2344ZM24.8359 23.3594C25.1641 22.5664 25.082 20.6523 25.082 19.75C25.082 18.875 25.1641 16.9609 24.8359 16.1406C24.6172 15.6211 24.207 15.1836 23.6875 14.9922C22.8672 14.6641 20.9531 14.7461 20.0781 14.7461C19.1758 14.7461 17.2617 14.6641 16.4688 14.9922C15.9219 15.2109 15.5117 15.6211 15.293 16.1406C14.9648 16.9609 15.0469 18.875 15.0469 19.75C15.0469 20.6523 14.9648 22.5664 15.293 23.3594C15.5117 23.9062 15.9219 24.3164 16.4688 24.5352C17.2617 24.8633 19.1758 24.7812 20.0781 24.7812C20.9531 24.7812 22.8672 24.8633 23.6875 24.5352C24.207 24.3164 24.6445 23.9062 24.8359 23.3594Z" fill="white"/>
</svg>
