<svg width="41" height="40" viewBox="0 0 41 40" fill="none" xmlns="http://www.w3.org/2000/svg">
<rect x="0.878906" width="40" height="40" rx="20" fill="#2F2F2F"/>
<path d="M17.4883 25H14.9453V16.8242H17.4883V25ZM16.2031 15.7305C15.4102 15.7305 14.7539 15.0469 14.7539 14.2266C14.7539 13.4336 15.4102 12.7773 16.2031 12.7773C17.0234 12.7773 17.6797 13.4336 17.6797 14.2266C17.6797 15.0469 17.0234 15.7305 16.2031 15.7305ZM26.9766 25H24.4609V21.0352C24.4609 20.0781 24.4336 18.875 23.1211 18.875C21.8086 18.875 21.6172 19.8867 21.6172 20.9531V25H19.0742V16.8242H21.5078V17.9453H21.5352C21.8906 17.3164 22.7109 16.6328 23.9414 16.6328C26.5117 16.6328 27.0039 18.3281 27.0039 20.5156V25H26.9766Z" fill="white"/>
</svg>
