<svg width="21" height="19" viewBox="0 0 21 19" fill="none" xmlns="http://www.w3.org/2000/svg">
<path fill-rule="evenodd" clip-rule="evenodd" d="M13.3134 12.7325C12.2637 13.7401 10.8476 14.3579 9.2894 14.3579C6.05317 14.3579 3.42969 11.6929 3.42969 8.40551C3.42969 5.1181 6.05317 2.45312 9.2894 2.45312C12.5257 2.45312 15.1491 5.1181 15.1491 8.40551C15.1491 9.68512 14.7516 10.8704 14.0753 11.8408L17.493 15.311L16.673 16.1436L13.3134 12.7325ZM13.9772 8.40551C13.9772 11.0354 11.8784 13.1674 9.2894 13.1674C6.70042 13.1674 4.60163 11.0354 4.60163 8.40551C4.60163 5.77558 6.70042 3.6436 9.2894 3.6436C11.8784 3.6436 13.9772 5.77558 13.9772 8.40551Z" fill="#171717"/>
</svg>
