<svg width="41" height="40" viewBox="0 0 41 40" fill="none" xmlns="http://www.w3.org/2000/svg">
<rect x="0.980469" width="40" height="40" rx="20" fill="#2F2F2F"/>
<path d="M26.5312 16.9062C26.5312 17.043 26.5312 17.1523 26.5312 17.2891C26.5312 21.0898 23.6602 25.4375 18.3828 25.4375C16.7422 25.4375 15.2383 24.9727 13.9805 24.1523C14.1992 24.1797 14.418 24.207 14.6641 24.207C16.0039 24.207 17.2344 23.7422 18.2188 22.9766C16.9609 22.9492 15.8945 22.1289 15.5391 20.9805C15.7305 21.0078 15.8945 21.0352 16.0859 21.0352C16.332 21.0352 16.6055 20.9805 16.8242 20.9258C15.5117 20.6523 14.5273 19.5039 14.5273 18.1094V18.082C14.9102 18.3008 15.375 18.4102 15.8398 18.4375C15.0469 17.918 14.5547 17.043 14.5547 16.0586C14.5547 15.5117 14.6914 15.0195 14.9375 14.6094C16.3594 16.332 18.4922 17.4805 20.8711 17.6172C20.8164 17.3984 20.7891 17.1797 20.7891 16.9609C20.7891 15.375 22.0742 14.0898 23.6602 14.0898C24.4805 14.0898 25.2188 14.418 25.7656 14.9922C26.3945 14.8555 27.0234 14.6094 27.5703 14.2812C27.3516 14.9648 26.9141 15.5117 26.3125 15.8672C26.8867 15.8125 27.4609 15.6484 27.9531 15.4297C27.5703 16.0039 27.0781 16.4961 26.5312 16.9062Z" fill="white"/>
</svg>
