<svg width="80" height="80" viewBox="0 0 80 80" fill="none" xmlns="http://www.w3.org/2000/svg">
<rect x="0.5" y="0.5" width="79" height="79" rx="39.5" fill="#171717"/>
<rect x="0.5" y="0.5" width="79" height="79" rx="39.5" stroke="#3ED5DD"/>
<path d="M55.5203 28.5914L40.4615 20.1208C40.1749 19.9597 39.8251 19.9597 39.5385 20.1208L24.4797 28.5914C24.1834 28.7581 24 29.0717 24 29.4118V43.5294C24 52.3518 31.1776 59.5294 40 59.5294C48.8224 59.5294 56 52.3518 56 43.5294V29.4118C56.0001 29.0717 55.8168 28.7582 55.5203 28.5914ZM54.1177 43.5294C54.1177 51.3139 47.7846 57.6471 40.0001 57.6471C32.2156 57.6471 25.8824 51.3139 25.8824 43.5294V29.9623L40.0001 22.0211L54.1177 29.9623V43.5294Z" fill="#3ED5DD"/>
<path d="M34.8235 36.4704V38.8234H32.9412C32.4214 38.8234 32 39.2448 32 39.7645V43.9998C32 48.411 35.5888 51.9998 40 51.9998C44.4112 51.9998 48 48.411 48 43.9998V39.7645C48 39.2448 47.5785 38.8234 47.0588 38.8234H45.1765V36.4704C45.1765 35.0876 44.638 33.7878 43.6603 32.8101C42.6826 31.8324 41.3828 31.2939 40 31.2939C37.1457 31.2939 34.8235 33.6161 34.8235 36.4704ZM46.1176 43.9998C46.1176 47.3731 43.3733 50.1175 40 50.1175C36.6267 50.1175 33.8824 47.3731 33.8824 43.9998V40.7057H46.1176V43.9998ZM43.2941 36.4704V38.8234H36.7059V36.4704C36.7059 34.654 38.1836 33.1763 40 33.1763C40.8799 33.1763 41.7072 33.519 42.3293 34.1411C42.9514 34.7632 43.2941 35.5905 43.2941 36.4704Z" fill="#3ED5DD"/>
<path d="M39.9998 42.5879C39.48 42.5879 39.0586 43.0093 39.0586 43.5291V46.3526C39.0586 46.8723 39.48 47.2938 39.9998 47.2938C40.5196 47.2938 40.9409 46.8723 40.9409 46.3526V43.5291C40.9409 43.0093 40.5196 42.5879 39.9998 42.5879Z" fill="#3ED5DD"/>
</svg>
