<svg width="80" height="80" viewBox="0 0 80 80" fill="none" xmlns="http://www.w3.org/2000/svg">
<rect x="0.5" y="0.5" width="79" height="79" rx="39.5" fill="#171717"/>
<rect x="0.5" y="0.5" width="79" height="79" rx="39.5" stroke="#3ED5DD"/>
<path d="M39.8478 43.7698C41.8801 43.7698 43.5276 42.1223 43.5276 40.09C43.5276 38.0577 41.8801 36.4102 39.8478 36.4102C37.8155 36.4102 36.168 38.0577 36.168 40.09C36.168 42.1223 37.8155 43.7698 39.8478 43.7698Z" fill="#3ED5DD"/>
<path d="M39.8488 41.4778C40.6152 41.4778 41.2366 40.8564 41.2366 40.09C41.2366 39.3235 40.6152 38.7021 39.8488 38.7021C39.0823 38.7021 38.4609 39.3235 38.4609 40.09C38.4609 40.8564 39.0823 41.4778 39.8488 41.4778Z" fill="#171717"/>
<path d="M20.8077 51.0977C21.5859 51.0977 22.2169 50.4668 22.2169 49.6885C22.2169 48.9102 21.5859 48.2793 20.8077 48.2793C20.0294 48.2793 19.3984 48.9102 19.3984 49.6885C19.3984 50.4668 20.0294 51.0977 20.8077 51.0977Z" fill="#3ED5DD"/>
<path d="M60.4893 40.0899C61.0529 40.0899 61.5098 39.633 61.5098 39.0693C61.5098 38.5057 61.0529 38.0488 60.4893 38.0488C59.9257 38.0488 59.4688 38.5057 59.4688 39.0693C59.4688 39.633 59.9257 40.0899 60.4893 40.0899Z" fill="#3ED5DD"/>
<path d="M31.2471 20.9278C31.8107 20.9278 32.2676 20.4709 32.2676 19.9072C32.2676 19.3436 31.8107 18.8867 31.2471 18.8867C30.6835 18.8867 30.2266 19.3436 30.2266 19.9072C30.2266 20.4709 30.6835 20.9278 31.2471 20.9278Z" fill="#3ED5DD"/>
<path d="M36.1455 61.1133C36.7091 61.1133 37.166 60.6564 37.166 60.0928C37.166 59.5292 36.7091 59.0723 36.1455 59.0723C35.5819 59.0723 35.125 59.5292 35.125 60.0928C35.125 60.6564 35.5819 61.1133 36.1455 61.1133Z" fill="#3ED5DD"/>
<path d="M45.885 45.6992C50.8925 43.9459 54.3765 40.656 54.5732 40.4673C54.6759 40.369 54.7338 40.233 54.7338 40.0908C54.7338 39.9487 54.6759 39.8126 54.5732 39.7143C54.3775 39.5266 50.9278 36.2685 45.9608 34.5087L49.2353 31.2342C49.3677 31.1018 49.3677 30.8873 49.2353 30.7548C49.1028 30.6223 48.8881 30.6223 48.7556 30.7548L45.2621 34.2483C45.2927 34.2613 45.3164 34.2853 45.3456 34.3011C43.6517 33.7585 41.7989 33.4012 39.8481 33.4012C37.9369 33.4012 36.1202 33.7448 34.4545 34.2688L30.9406 30.7548C30.8081 30.6223 30.5933 30.6223 30.4609 30.7548C30.3285 30.8873 30.3285 31.1018 30.4609 31.2342L33.7353 34.5087C28.7684 36.2685 25.3187 39.5266 25.1231 39.7143C25.0204 39.8126 24.9625 39.9487 24.9625 40.0908C24.9625 40.233 25.0204 40.369 25.1231 40.4673C25.3198 40.656 28.8037 43.9459 33.8111 45.6992L30.4609 49.0495C30.3285 49.182 30.3285 49.3965 30.4609 49.529C30.5933 49.6615 30.8081 49.6615 30.9406 49.529L34.5325 45.9371C36.1769 46.4473 37.9666 46.7804 39.8481 46.7804C41.7296 46.7804 43.5192 46.4473 45.1637 45.9371L48.7556 49.529C48.8881 49.6615 49.1028 49.6615 49.2353 49.529C49.3676 49.3965 49.3676 49.182 49.2353 49.0495L45.885 45.6992ZM44.0043 45.1606C45.4703 43.9567 46.4074 42.1314 46.4074 40.0908C46.4074 38.0455 45.4654 36.2168 43.9936 35.013C48.6019 36.2257 52.2297 39.0644 53.4276 40.0908C52.2308 41.1162 48.6068 43.9466 44.0043 45.1606ZM39.8481 34.3142C43.0334 34.3142 45.6248 36.9056 45.6248 40.0908C45.6248 43.276 43.0334 45.8674 39.8481 45.8674C36.6629 45.8674 34.0715 43.276 34.0715 40.0908C34.0715 36.9056 36.6629 34.3142 39.8481 34.3142ZM35.7117 35.0063C34.2348 36.2099 33.2889 38.0414 33.2889 40.0908C33.2889 42.1384 34.233 43.9686 35.7077 45.1724C31.0956 43.9616 27.4671 41.1177 26.2687 40.0908C27.4673 39.0636 31.0982 36.2177 35.7117 35.0063ZM23.4133 29.5159H29.3225C29.5097 29.5159 29.6616 29.3641 29.6616 29.1768V23.2678C29.6616 23.0805 29.5097 22.9287 29.3225 22.9287H23.4133C23.226 22.9287 23.0742 23.0805 23.0742 23.2678V29.1768C23.0742 29.3641 23.226 29.5159 23.4133 29.5159ZM23.7524 23.6069H28.9834V28.8378H23.7524V23.6069ZM56.6965 22.9287H50.7873C50.6 22.9287 50.4482 23.0805 50.4482 23.2678V29.1768C50.4482 29.3641 50.6 29.5159 50.7873 29.5159H56.6965C56.8837 29.5159 57.0355 29.3641 57.0355 29.1768V23.2678C57.0355 23.0805 56.8837 22.9287 56.6965 22.9287ZM56.3574 28.8378H51.1264V23.6069H56.3574V28.8378ZM29.3225 50.4107H23.4133C23.226 50.4107 23.0742 50.5625 23.0742 50.7498V56.6591C23.0742 56.8463 23.2261 56.9982 23.4133 56.9982H29.3225C29.5097 56.9982 29.6616 56.8463 29.6616 56.6591V50.7498C29.6616 50.5625 29.5097 50.4107 29.3225 50.4107ZM28.9834 56.32H23.7524V51.0889H28.9834L28.9834 56.32ZM56.6965 50.4107H50.7873C50.6 50.4107 50.4482 50.5625 50.4482 50.7498V56.6591C50.4482 56.8463 50.6 56.9982 50.7873 56.9982H56.6965C56.8837 56.9982 57.0355 56.8463 57.0355 56.6591V50.7498C57.0355 50.5625 56.8837 50.4107 56.6965 50.4107ZM56.3574 56.32H51.1264V51.0889H56.3574V56.32Z" fill="#3ED5DD"/>
<path d="M39.6087 31.5316C39.6749 31.5978 39.7615 31.6307 39.8483 31.6307C39.935 31.6307 40.0219 31.5976 40.0881 31.5313L42.3891 29.2304C42.5214 29.0979 42.5214 28.8834 42.3891 28.7509C42.2566 28.6184 42.0419 28.6184 41.9094 28.7509L39.848 30.8121L37.7818 28.7507C37.6491 28.6179 37.4344 28.6184 37.3021 28.7512C37.1699 28.8836 37.1702 29.0984 37.3026 29.2306L39.6087 31.5316ZM40.0828 48.6501C39.9503 48.5176 39.7358 48.5179 39.6033 48.6504L37.3024 50.9513C37.17 51.0838 37.17 51.2983 37.3024 51.4308C37.4349 51.5633 37.6496 51.5633 37.7821 51.4308L39.8434 49.3696L41.9096 51.431C42.042 51.5634 42.2572 51.5632 42.3893 51.4305C42.5216 51.2981 42.5213 51.0833 42.3888 50.9511L40.0828 48.6501Z" fill="#3ED5DD"/>
</svg>
