<svg width="80" height="80" viewBox="0 0 80 80" fill="none" xmlns="http://www.w3.org/2000/svg">
<rect x="0.5" y="0.5" width="79" height="79" rx="39.5" fill="#171717"/>
<rect x="0.5" y="0.5" width="79" height="79" rx="39.5" stroke="#3ED5DD"/>
<g clip-path="url(#clip0_141_4700)">
<path d="M26.68 15.0693L21.787 26.5833L34.195 28.0773L32.695 25.4763L31.405 23.2443C34.8478 21.3662 38.8101 20.6649 42.6884 21.2472C46.5667 21.8295 50.1484 23.6636 52.8878 26.4699C55.6272 29.2763 57.3743 32.9012 57.8628 36.7924C58.3514 40.6836 57.5547 44.6279 55.594 48.0243C53.6141 51.458 50.5558 54.1418 46.8941 55.6591C43.2325 57.1764 39.1723 57.4422 35.344 56.4153C31.5146 55.3915 28.1306 53.1316 25.7175 49.9868C23.3045 46.8419 21.9977 42.9882 22 39.0243H19C19.003 43.6473 20.5301 48.1404 23.3449 51.8077C26.1596 55.475 30.105 58.112 34.57 59.3103C43.741 61.7673 53.44 57.7503 58.186 49.5243C60.4954 45.52 61.4198 40.8659 60.8162 36.283C60.2125 31.7001 58.1145 27.4441 54.847 24.1743C51.5799 20.9061 47.3242 18.8094 42.742 18.2103C38.3115 17.6352 33.813 18.4897 29.902 20.6493L26.683 15.0693H26.68ZM40 30.0243V39.0363H31V42.0363H43V30.0243H40Z" fill="#3ED5DD"/>
</g>
<defs>
<clipPath id="clip0_141_4700">
<rect width="48" height="48" fill="white" transform="translate(16 12)"/>
</clipPath>
</defs>
</svg>
