<svg width="112" height="16" viewBox="0 0 112 16" fill="none" xmlns="http://www.w3.org/2000/svg">
<path d="M8 0L9.79611 5.52786H15.6085L10.9062 8.94427L12.7023 14.4721L8 11.0557L3.29772 14.4721L5.09383 8.94427L0.391548 5.52786H6.20389L8 0Z" fill="#FFA41B"/>
<path d="M32 0L33.7961 5.52786H39.6085L34.9062 8.94427L36.7023 14.4721L32 11.0557L27.2977 14.4721L29.0938 8.94427L24.3915 5.52786H30.2039L32 0Z" fill="#FFA41B"/>
<path d="M56 0L57.7961 5.52786H63.6085L58.9062 8.94427L60.7023 14.4721L56 11.0557L51.2977 14.4721L53.0938 8.94427L48.3915 5.52786H54.2039L56 0Z" fill="#FFA41B"/>
<path d="M80 0L81.7961 5.52786H87.6085L82.9062 8.94427L84.7023 14.4721L80 11.0557L75.2977 14.4721L77.0938 8.94427L72.3915 5.52786H78.2039L80 0Z" fill="#FFA41B"/>
<path d="M104 0L105.796 5.52786H111.608L106.906 8.94427L108.702 14.4721L104 11.0557L99.2977 14.4721L101.094 8.94427L96.3915 5.52786H102.204L104 0Z" fill="#FFA41B"/>
</svg>
